<?xml version="1.0" encoding="utf-8"?>
<!-- Generator: Adobe Illustrator 25.2.3, SVG Export Plug-In . SVG Version: 6.00 Build 0)  -->
<svg version="1.1" id="Layer_1" xmlns="http://www.w3.org/2000/svg" xmlns:xlink="http://www.w3.org/1999/xlink" x="0px" y="0px"
	 viewBox="0 0 449 139" style="enable-background:new 0 0 449 139;" xml:space="preserve">
<style type="text/css">
	.st0{clip-path:url(#SVGID_2_);fill:#707070;}
	.st1{clip-path:url(#SVGID_4_);fill:#707070;}
	.st2{clip-path:url(#SVGID_6_);}
	.st3{font-family:'TrebuchetMS';}
	.st4{font-size:12px;}
	.st5{clip-path:url(#SVGID_8_);fill:#707070;}
	.st6{clip-path:url(#SVGID_10_);}
	.st7{fill:#707070;}
	.st8{clip-path:url(#SVGID_12_);fill:#707070;}
	.st9{clip-path:url(#SVGID_14_);fill:#707070;}
	.st10{clip-path:url(#SVGID_16_);}
	.st11{clip-path:url(#SVGID_18_);fill:#707070;}
	.st12{clip-path:url(#SVGID_20_);}
	.st13{clip-path:url(#SVGID_22_);fill:#707070;}
	.st14{clip-path:url(#SVGID_24_);fill:#707070;}
	.st15{clip-path:url(#SVGID_26_);}
	.st16{clip-path:url(#SVGID_28_);fill:#707070;}
	.st17{clip-path:url(#SVGID_30_);}
	.st18{clip-path:url(#SVGID_32_);fill:#707070;}
	.st19{clip-path:url(#SVGID_34_);}
	.st20{clip-path:url(#SVGID_36_);}
	.st21{clip-path:url(#SVGID_38_);}
	.st22{clip-path:url(#SVGID_40_);}
	.st23{clip-path:url(#SVGID_42_);}
	.st24{clip-path:url(#SVGID_44_);}
	.st25{clip-path:url(#SVGID_46_);}
	.st26{clip-path:url(#SVGID_48_);}
	.st27{clip-path:url(#SVGID_50_);}
	.st28{clip-path:url(#SVGID_52_);}
	.st29{clip-path:url(#SVGID_54_);}
	.st30{clip-path:url(#SVGID_56_);}
	.st31{clip-path:url(#SVGID_58_);}
	.st32{clip-path:url(#SVGID_60_);}
	.st33{clip-path:url(#SVGID_62_);}
	.st34{clip-path:url(#SVGID_64_);}
	.st35{clip-path:url(#SVGID_66_);}
	.st36{clip-path:url(#SVGID_68_);}
	.st37{clip-path:url(#SVGID_70_);}
	.st38{clip-path:url(#SVGID_72_);}
	.st39{clip-path:url(#SVGID_74_);fill:none;stroke:#808080;stroke-width:0.5;}
	.st40{clip-path:url(#SVGID_76_);fill:none;stroke:#808080;stroke-width:0.5;}
	.st41{clip-path:url(#SVGID_78_);fill:none;stroke:#808080;stroke-width:0.5;}
	.st42{clip-path:url(#SVGID_80_);fill:none;stroke:#808080;stroke-width:0.5;}
	.st43{clip-path:url(#SVGID_82_);fill:none;stroke:#808080;stroke-width:0.5;}
	.st44{clip-path:url(#SVGID_84_);fill:none;stroke:#808080;stroke-width:0.5;}
	.st45{clip-path:url(#SVGID_86_);fill:none;stroke:#808080;stroke-width:0.5;}
	.st46{clip-path:url(#SVGID_88_);fill:none;stroke:#808080;stroke-width:0.5;}
	.st47{clip-path:url(#SVGID_90_);fill:none;stroke:#808080;stroke-width:0.5;}
	.st48{clip-path:url(#SVGID_92_);fill:none;stroke:#808080;stroke-width:0.5;}
	.st49{clip-path:url(#SVGID_94_);fill:none;stroke:#808080;stroke-width:0.5;}
	.st50{clip-path:url(#SVGID_96_);fill:none;stroke:#808080;stroke-width:0.5;}
</style>
<g>
	<defs>
		<rect id="SVGID_1_" x="2.2" y="2.2" width="61.6" height="22"/>
	</defs>
	<clipPath id="SVGID_2_">
		<use xlink:href="#SVGID_1_"  style="overflow:visible;"/>
	</clipPath>
	<path class="st0" d="M15.9,14.7c-0.2,0-0.5,0-0.9,0V18h-1.2V9.4c0.7,0,1.3-0.1,1.6-0.1c2.5,0,3.7,0.8,3.7,2.5
		C19.2,13.8,18.1,14.7,15.9,14.7L15.9,14.7z M15.7,10.4c-0.2,0-0.4,0-0.6,0.1v3.2l0.8,0.1c1.5,0,2.2-0.6,2.2-1.7
		C18,10.9,17.2,10.4,15.7,10.4L15.7,10.4z M24,17.3c-0.5,0.6-1.1,0.8-2,0.8c-0.5,0-0.9-0.2-1.3-0.5c-0.4-0.4-0.5-0.8-0.5-1.3
		c0-0.6,0.3-1.2,0.8-1.6c0.6-0.4,1.3-0.7,2.1-0.7c0.2,0,0.5,0,0.8,0.1c0-1-0.5-1.5-1.4-1.5c-0.7,0-1.2,0.2-1.6,0.6l-0.5-0.9
		c0.2-0.2,0.5-0.3,0.9-0.4c0.4-0.1,0.7-0.2,1.1-0.2c0.9,0,1.5,0.2,2,0.6c0.4,0.4,0.6,1.1,0.6,2v2.2c0,0.6,0.2,0.9,0.5,1.1v0.6
		c-0.5,0-0.8-0.1-1.1-0.2S24.1,17.5,24,17.3z M23.9,14.9c-0.4-0.1-0.6-0.1-0.7-0.1c-0.6,0-1,0.1-1.4,0.4c-0.4,0.3-0.5,0.6-0.5,1
		c0,0.7,0.4,1,1.2,1c0.6,0,1.1-0.3,1.5-0.8v-1.5H23.9z M30.7,13.4c0,0.6-0.3,1.1-1,1.3c0.8,0.3,1.2,0.8,1.2,1.5c0,0.6-0.2,1-0.7,1.4
		s-1,0.5-1.8,0.5s-1.6-0.2-2.3-0.7l0.6-0.9c0.5,0.5,1.1,0.7,1.8,0.7c0.4,0,0.7-0.1,0.9-0.3c0.2-0.2,0.3-0.4,0.3-0.7
		c0-0.8-0.5-1.1-1.4-1.1c-0.3,0-0.5,0-0.7,0v-0.9c0.1,0,0.3,0,0.7,0c0.4,0,0.7-0.1,0.9-0.2c0.2-0.2,0.3-0.4,0.3-0.6
		c0-0.3-0.1-0.5-0.3-0.7c-0.2-0.2-0.5-0.2-0.8-0.2c-0.5,0-1.1,0.2-1.6,0.5l-0.4-0.9c0.7-0.3,1.4-0.5,2.1-0.5c0.6,0,1.1,0.2,1.6,0.5
		C30.5,12.4,30.7,12.9,30.7,13.4L30.7,13.4z M38.1,18l-0.7-3.8l-1.9,3.9h-0.3l-1.9-3.8L32.7,18h-1.1l1.2-6.4h0.3l2.3,4.7l2.3-4.7H38
		l1.2,6.4H38.1z M45.7,14.3c0,0.2,0,0.4-0.1,0.7H41c0,0.5,0.1,0.9,0.2,1.2c0.2,0.3,0.4,0.6,0.7,0.8c0.3,0.2,0.7,0.3,1.1,0.3
		c0.6,0,1.2-0.2,1.6-0.6l0.5,0.9c-0.3,0.2-0.6,0.4-1,0.5s-0.8,0.1-1.3,0.1c-0.9,0-1.6-0.3-2.1-0.9s-0.8-1.4-0.8-2.3
		c0-1,0.3-1.8,0.9-2.4c0.6-0.6,1.3-0.9,2.1-0.9c0.9,0,1.6,0.2,2.1,0.7S45.7,13.5,45.7,14.3L45.7,14.3z M42.9,12.5
		c-0.5,0-0.9,0.2-1.2,0.5s-0.5,0.7-0.6,1.1h3.5c0-0.5-0.2-0.9-0.5-1.2C43.8,12.7,43.4,12.5,42.9,12.5z M48,17.7v2.8h-1.1v-8.7H48
		v0.5c0.4-0.4,0.9-0.6,1.5-0.6c0.9,0,1.6,0.3,2.1,0.8c0.5,0.6,0.7,1.4,0.7,2.4s-0.3,1.7-0.8,2.3c-0.5,0.6-1.2,0.9-2.2,0.9
		c-0.3,0-0.5,0-0.8-0.1C48.2,17.9,48.1,17.8,48,17.7z M48,13.1v3.7c0.1,0.1,0.2,0.2,0.5,0.3c0.2,0.1,0.4,0.1,0.6,0.1
		c1.4,0,2.1-0.8,2.1-2.4c0-0.8-0.2-1.4-0.5-1.8c-0.3-0.4-0.9-0.5-1.6-0.5c-0.2,0-0.3,0.1-0.6,0.2S48.1,13,48,13.1z"/>
</g>
<g>
	<defs>
		<rect id="SVGID_3_" x="64.3" y="2.2" width="127.1" height="22"/>
	</defs>
	<clipPath id="SVGID_4_">
		<use xlink:href="#SVGID_3_"  style="overflow:visible;"/>
	</clipPath>
	<path class="st1" d="M80.5,13.6c0-1.2,0.3-2.3,0.9-3.1s1.5-1.3,2.5-1.3c1.2,0,2.1,0.4,2.7,1.2s0.9,1.8,0.9,3.2s-0.3,2.5-1,3.3
		c-0.6,0.8-1.5,1.2-2.7,1.2c-1.1,0-1.9-0.4-2.5-1.3C80.8,16,80.5,15,80.5,13.6z M81.7,13.6c0,1,0.2,1.8,0.6,2.5c0.4,0.7,0.9,1,1.6,1
		c0.8,0,1.4-0.3,1.8-0.9s0.6-1.5,0.6-2.6c0-2.2-0.8-3.3-2.5-3.3c-0.7,0-1.3,0.3-1.6,0.9C81.9,11.8,81.7,12.6,81.7,13.6z M89.4,13.5
		c0.3-0.5,0.6-0.8,1-1s0.8-0.4,1.3-0.4c0.8,0,1.5,0.3,1.9,0.8c0.5,0.5,0.7,1.2,0.7,2.1s-0.3,1.7-0.8,2.3c-0.5,0.6-1.2,0.9-2.1,0.9
		s-1.6-0.3-2.1-1s-0.8-1.6-0.8-2.7c0-0.8,0.1-1.4,0.2-2s0.3-1.1,0.6-1.4c0.3-0.4,0.6-0.7,1-0.9s0.9-0.4,1.6-0.6l2-0.5l0.2,1
		c-1.5,0.3-2.4,0.5-2.7,0.6c-0.3,0.1-0.7,0.2-0.9,0.4c-0.3,0.2-0.5,0.5-0.7,0.8C89.6,12.3,89.5,12.8,89.4,13.5z M91.5,17.2
		c0.5,0,0.9-0.2,1.2-0.6c0.3-0.4,0.4-0.9,0.4-1.5c0-0.7-0.1-1.2-0.4-1.6C92.4,13.2,92,13,91.5,13s-1,0.2-1.3,0.6
		c-0.3,0.4-0.5,0.9-0.5,1.5s0.2,1.1,0.5,1.5S91,17.2,91.5,17.2z M100.7,18h-1.4l-1.6-2.4L96.1,18h-1.3l2.3-3.2L95,11.7h1.3l1.4,2.2
		l1.5-2.2h1.3l-2.2,3L100.7,18z M105.3,14.6c0.8,0.3,1.2,0.8,1.2,1.6c0,0.5-0.2,0.9-0.6,1.3c-0.4,0.3-1,0.5-1.8,0.5h-2.6v-6.3
		c0.9,0,1.7-0.1,2.4-0.1c0.7,0,1.3,0.1,1.6,0.4c0.4,0.3,0.6,0.7,0.6,1.3c0,0.3-0.1,0.5-0.3,0.8C105.9,14.3,105.6,14.5,105.3,14.6z
		 M102.6,14.3c0.1,0,0.5,0,1.3,0s1.2-0.3,1.2-0.9c0-0.3-0.1-0.5-0.3-0.6c-0.2-0.2-0.4-0.2-0.8-0.2c-0.6,0-1.1,0-1.5,0v1.7H102.6z
		 M102.6,17.1c0.4,0,0.9,0,1.4,0c0.9,0,1.4-0.3,1.4-1c0-0.3-0.1-0.6-0.4-0.8c-0.2-0.2-0.6-0.3-1.1-0.3c-0.6,0-1,0-1.3,0V17.1z
		 M111.3,17.3c-0.5,0.6-1.1,0.8-2,0.8c-0.5,0-0.9-0.2-1.3-0.5c-0.4-0.4-0.5-0.8-0.5-1.3c0-0.6,0.3-1.2,0.8-1.6
		c0.6-0.4,1.3-0.7,2.1-0.7c0.2,0,0.5,0,0.8,0.1c0-1-0.5-1.5-1.4-1.5c-0.7,0-1.2,0.2-1.6,0.6l-0.5-0.9c0.2-0.2,0.5-0.3,0.9-0.4
		c0.4-0.1,0.7-0.2,1.1-0.2c0.9,0,1.5,0.2,2,0.6c0.4,0.4,0.6,1.1,0.6,2v2.2c0,0.6,0.2,0.9,0.5,1.1v0.6c-0.5,0-0.8-0.1-1.1-0.2
		S111.3,17.5,111.3,17.3z M111.2,14.9c-0.4-0.1-0.6-0.1-0.7-0.1c-0.6,0-1,0.1-1.4,0.4c-0.4,0.3-0.5,0.6-0.5,1c0,0.7,0.4,1,1.2,1
		c0.6,0,1.1-0.3,1.5-0.8L111.2,14.9L111.2,14.9z M118.2,12.7h-1.8V18h-1.1v-5.3h-1.8v-0.9h4.7C118.2,11.8,118.2,12.7,118.2,12.7z"/>
</g>
<g>
	<defs>
		<rect id="SVGID_5_" x="64.3" y="2.2" width="127.1" height="22"/>
	</defs>
	<clipPath id="SVGID_6_">
		<use xlink:href="#SVGID_5_"  style="overflow:visible;"/>
	</clipPath>
	<g class="st2">
		<text transform="matrix(1 0 0 1 118.5776 18)" class="st3 st4"> </text>
	</g>
</g>
<g>
	<defs>
		<rect id="SVGID_7_" x="64.3" y="2.2" width="127.1" height="22"/>
	</defs>
	<clipPath id="SVGID_8_">
		<use xlink:href="#SVGID_7_"  style="overflow:visible;"/>
	</clipPath>
	<path class="st5" d="M127,12.7h-2.9V18H123v-6.3h4V12.7z M129.3,17.7v2.8h-1.1v-8.7h1.1v0.5c0.4-0.4,0.9-0.6,1.5-0.6
		c0.9,0,1.6,0.3,2.1,0.8c0.5,0.6,0.7,1.4,0.7,2.4s-0.3,1.7-0.8,2.3c-0.5,0.6-1.2,0.9-2.2,0.9c-0.3,0-0.5,0-0.8-0.1
		C129.6,17.9,129.4,17.8,129.3,17.7z M129.3,13.1v3.7c0.1,0.1,0.2,0.2,0.5,0.3c0.2,0.1,0.4,0.1,0.6,0.1c1.4,0,2.1-0.8,2.1-2.4
		c0-0.8-0.2-1.4-0.5-1.8c-0.3-0.4-0.9-0.5-1.6-0.5c-0.2,0-0.3,0.1-0.6,0.2S129.4,13,129.3,13.1z M137.3,19c-0.1,0.4-0.4,0.7-0.9,1
		s-1,0.4-1.6,0.4v-1c0.5,0,0.9-0.1,1.2-0.3c0.3-0.2,0.5-0.5,0.5-0.8c0-0.4-0.1-0.7-0.2-1l-2.2-5.6h1.1l1.8,4.8l1.7-4.8h1.1L137.3,19
		z M146.7,20.1h-1V18h-4.4v2.1h-1v-2.9h0.5c0.5-0.6,0.9-1.3,1.1-2.1c0.3-0.8,0.4-1.6,0.4-2.5v-0.8h3.7v5.4h0.7V20.1z M144.9,17.1
		v-4.5h-1.7c0,0.8-0.1,1.6-0.4,2.5c-0.2,0.8-0.6,1.5-1,2H144.9z M153,18h-1.1v-4.3l-3.9,4.5h-0.3v-6.4h1.1V16l3.9-4.5h0.3V18z"/>
</g>
<g>
	<defs>
		<rect id="SVGID_9_" x="64.3" y="2.2" width="127.1" height="22"/>
	</defs>
	<clipPath id="SVGID_10_">
		<use xlink:href="#SVGID_9_"  style="overflow:visible;"/>
	</clipPath>
	<g class="st6">
		<text transform="matrix(1 0 0 1 153.8311 18)" class="st7 st3 st4">, </text>
	</g>
</g>
<g>
	<defs>
		<rect id="SVGID_11_" x="64.3" y="2.2" width="127.1" height="22"/>
	</defs>
	<clipPath id="SVGID_12_">
		<use xlink:href="#SVGID_11_"  style="overflow:visible;"/>
	</clipPath>
	<path class="st8" d="M167.4,12.2l-0.5,0.8c-0.1-0.1-0.3-0.2-0.6-0.3s-0.6-0.1-0.8-0.1c-0.6,0-1.1,0.2-1.4,0.6
		c-0.4,0.4-0.5,1-0.5,1.7s0.2,1.3,0.5,1.7c0.4,0.4,0.9,0.6,1.5,0.6c0.5,0,1-0.2,1.5-0.6l0.4,0.9c-0.6,0.4-1.3,0.6-2.2,0.6
		s-1.6-0.3-2.1-0.9c-0.6-0.6-0.8-1.4-0.8-2.3c0-1,0.3-1.8,0.9-2.4c0.6-0.6,1.4-0.9,2.4-0.9c0.3,0,0.7,0.1,1.1,0.2
		S167.2,12.1,167.4,12.2z M174.6,18l-0.7-3.8l-1.9,3.9h-0.3l-1.9-3.8l-0.6,3.7h-1.1l1.2-6.4h0.3l2.3,4.7l2.3-4.7h0.3l1.2,6.4H174.6z
		"/>
</g>
<g>
	<defs>
		<rect id="SVGID_13_" x="191.9" y="2.2" width="127.1" height="22"/>
	</defs>
	<clipPath id="SVGID_14_">
		<use xlink:href="#SVGID_13_"  style="overflow:visible;"/>
	</clipPath>
	<path class="st9" d="M207.5,13.6c0-1.2,0.3-2.3,0.9-3.1c0.6-0.8,1.5-1.3,2.5-1.3c1.2,0,2.1,0.4,2.7,1.2c0.6,0.8,0.9,1.8,0.9,3.2
		s-0.3,2.5-1,3.3c-0.6,0.8-1.5,1.2-2.7,1.2c-1.1,0-1.9-0.4-2.5-1.3C207.8,16,207.5,15,207.5,13.6z M208.7,13.6c0,1,0.2,1.8,0.6,2.5
		c0.4,0.7,0.9,1,1.6,1c0.8,0,1.4-0.3,1.8-0.9c0.4-0.6,0.6-1.5,0.6-2.6c0-2.2-0.8-3.3-2.5-3.3c-0.7,0-1.3,0.3-1.6,0.9
		C208.9,11.8,208.7,12.6,208.7,13.6z M216.4,13.5c0.3-0.5,0.6-0.8,1-1s0.8-0.4,1.3-0.4c0.8,0,1.5,0.3,1.9,0.8
		c0.5,0.5,0.7,1.2,0.7,2.1s-0.3,1.7-0.8,2.3c-0.5,0.6-1.2,0.9-2.1,0.9c-0.9,0-1.6-0.3-2.1-1s-0.8-1.6-0.8-2.7c0-0.8,0.1-1.4,0.2-2
		c0.1-0.6,0.3-1.1,0.6-1.4c0.3-0.4,0.6-0.7,1-0.9s0.9-0.4,1.6-0.6l2-0.5l0.2,1c-1.5,0.3-2.4,0.5-2.7,0.6s-0.7,0.2-0.9,0.4
		c-0.3,0.2-0.5,0.5-0.7,0.8C216.6,12.3,216.5,12.8,216.4,13.5z M218.5,17.2c0.5,0,0.9-0.2,1.2-0.6s0.4-0.9,0.4-1.5
		c0-0.7-0.1-1.2-0.4-1.6c-0.3-0.4-0.7-0.5-1.2-0.5s-1,0.2-1.3,0.6c-0.3,0.4-0.5,0.9-0.5,1.5s0.2,1.1,0.5,1.5S218,17.2,218.5,17.2z
		 M227.7,18h-1.4l-1.6-2.4l-1.6,2.4h-1.3l2.3-3.2l-2.1-3.1h1.3l1.4,2.2l1.5-2.2h1.3l-2.2,3L227.7,18z M232.3,14.6
		c0.8,0.3,1.2,0.8,1.2,1.6c0,0.5-0.2,0.9-0.6,1.3c-0.4,0.3-1,0.5-1.8,0.5h-2.6v-6.3c0.9,0,1.7-0.1,2.4-0.1s1.3,0.1,1.6,0.4
		c0.4,0.3,0.6,0.7,0.6,1.3c0,0.3-0.1,0.5-0.3,0.8C232.9,14.3,232.6,14.5,232.3,14.6z M229.6,14.3c0.1,0,0.5,0,1.3,0s1.2-0.3,1.2-0.9
		c0-0.3-0.1-0.5-0.3-0.6c-0.2-0.2-0.4-0.2-0.8-0.2c-0.6,0-1.1,0-1.5,0v1.7H229.6z M229.6,17.1c0.4,0,0.9,0,1.4,0
		c0.9,0,1.4-0.3,1.4-1c0-0.3-0.1-0.6-0.4-0.8c-0.2-0.2-0.6-0.3-1.1-0.3c-0.6,0-1,0-1.3,0L229.6,17.1L229.6,17.1z M238.3,17.3
		c-0.5,0.6-1.1,0.8-2,0.8c-0.5,0-0.9-0.2-1.3-0.5c-0.4-0.4-0.5-0.8-0.5-1.3c0-0.6,0.3-1.2,0.8-1.6c0.6-0.4,1.3-0.7,2.1-0.7
		c0.2,0,0.5,0,0.8,0.1c0-1-0.5-1.5-1.4-1.5c-0.7,0-1.2,0.2-1.6,0.6l-0.5-0.9c0.2-0.2,0.5-0.3,0.9-0.4c0.4-0.1,0.7-0.2,1.1-0.2
		c0.9,0,1.5,0.2,2,0.6c0.4,0.4,0.6,1.1,0.6,2v2.2c0,0.6,0.2,0.9,0.5,1.1v0.6c-0.5,0-0.8-0.1-1.1-0.2S238.3,17.5,238.3,17.3z
		 M238.2,14.9c-0.4-0.1-0.6-0.1-0.7-0.1c-0.6,0-1,0.1-1.4,0.4c-0.4,0.3-0.5,0.6-0.5,1c0,0.7,0.4,1,1.2,1c0.6,0,1.1-0.3,1.5-0.8v-1.5
		H238.2z M245.2,12.7h-1.8V18h-1.1v-5.3h-1.8v-0.9h4.7L245.2,12.7L245.2,12.7z"/>
</g>
<g>
	<defs>
		<rect id="SVGID_15_" x="191.9" y="2.2" width="127.1" height="22"/>
	</defs>
	<clipPath id="SVGID_16_">
		<use xlink:href="#SVGID_15_"  style="overflow:visible;"/>
	</clipPath>
	<g class="st10">
		<text transform="matrix(1 0 0 1 245.5898 18)" class="st3 st4"> </text>
	</g>
</g>
<g>
	<defs>
		<rect id="SVGID_17_" x="191.9" y="2.2" width="127.1" height="22"/>
	</defs>
	<clipPath id="SVGID_18_">
		<use xlink:href="#SVGID_17_"  style="overflow:visible;"/>
	</clipPath>
	<path class="st11" d="M254.3,12.7h-1.8V18h-1.1v-5.3h-1.8v-0.9h4.7L254.3,12.7L254.3,12.7z M258.9,17.3c-0.5,0.6-1.1,0.8-2,0.8
		c-0.5,0-0.9-0.2-1.3-0.5c-0.4-0.4-0.5-0.8-0.5-1.3c0-0.6,0.3-1.2,0.8-1.6c0.6-0.4,1.3-0.7,2.1-0.7c0.2,0,0.5,0,0.8,0.1
		c0-1-0.5-1.5-1.4-1.5c-0.7,0-1.2,0.2-1.6,0.6l-0.5-0.9c0.2-0.2,0.5-0.3,0.9-0.4c0.4-0.1,0.7-0.2,1.1-0.2c0.9,0,1.5,0.2,2,0.6
		c0.4,0.4,0.6,1.1,0.6,2v2.2c0,0.6,0.2,0.9,0.5,1.1v0.6c-0.5,0-0.8-0.1-1.1-0.2S259,17.5,258.9,17.3z M258.8,14.9
		c-0.4-0.1-0.6-0.1-0.7-0.1c-0.6,0-1,0.1-1.4,0.4c-0.4,0.3-0.5,0.6-0.5,1c0,0.7,0.4,1,1.2,1c0.6,0,1.1-0.3,1.5-0.8v-1.5H258.8z
		 M266.8,18h-1.1v-5.4H264c0,0.9-0.1,1.7-0.3,2.4c-0.2,0.7-0.4,1.4-0.7,1.9c-0.3,0.5-0.6,0.8-0.9,0.9s-0.7,0.2-1.2,0.2v-1
		c0.7,0,1.2-0.5,1.5-1.6s0.4-2.1,0.4-3.1v-0.6h3.8V18H266.8z M273.6,18h-1.1v-4.3l-3.9,4.5h-0.3v-6.4h1.1V16l3.9-4.5h0.3V18z
		 M280.5,18h-1.1v-4.3l-3.9,4.5h-0.3v-6.4h1.1V16l3.9-4.5h0.3V18z"/>
</g>
<g>
	<defs>
		<rect id="SVGID_19_" x="191.9" y="2.2" width="127.1" height="22"/>
	</defs>
	<clipPath id="SVGID_20_">
		<use xlink:href="#SVGID_19_"  style="overflow:visible;"/>
	</clipPath>
	<g class="st12">
		<text transform="matrix(1 0 0 1 281.2803 18)" class="st7 st3 st4">, </text>
	</g>
</g>
<g>
	<defs>
		<rect id="SVGID_21_" x="191.9" y="2.2" width="127.1" height="22"/>
	</defs>
	<clipPath id="SVGID_22_">
		<use xlink:href="#SVGID_21_"  style="overflow:visible;"/>
	</clipPath>
	<path class="st13" d="M294.8,12.2l-0.5,0.8c-0.1-0.1-0.3-0.2-0.6-0.3s-0.6-0.1-0.8-0.1c-0.6,0-1.1,0.2-1.4,0.6
		c-0.4,0.4-0.5,1-0.5,1.7s0.2,1.3,0.5,1.7c0.4,0.4,0.9,0.6,1.5,0.6c0.5,0,1-0.2,1.5-0.6l0.4,0.9c-0.6,0.4-1.3,0.6-2.2,0.6
		c-0.9,0-1.6-0.3-2.1-0.9c-0.6-0.6-0.8-1.4-0.8-2.3c0-1,0.3-1.8,0.9-2.4s1.4-0.9,2.4-0.9c0.3,0,0.7,0.1,1.1,0.2
		S294.7,12.1,294.8,12.2z M302,18l-0.7-3.8l-1.9,3.9h-0.3l-1.9-3.8l-0.6,3.7h-1.1l1.2-6.4h0.3l2.3,4.7l2.3-4.7h0.3l1.2,6.4H302z"/>
</g>
<g>
	<defs>
		<rect id="SVGID_23_" x="319.5" y="2.2" width="127.1" height="22"/>
	</defs>
	<clipPath id="SVGID_24_">
		<use xlink:href="#SVGID_23_"  style="overflow:visible;"/>
	</clipPath>
	<path class="st14" d="M334.5,13.6c0-1.2,0.3-2.3,0.9-3.1s1.5-1.3,2.5-1.3c1.2,0,2.1,0.4,2.7,1.2s0.9,1.8,0.9,3.2s-0.3,2.5-1,3.3
		c-0.6,0.8-1.5,1.2-2.7,1.2c-1.1,0-1.9-0.4-2.5-1.3C334.8,16,334.5,15,334.5,13.6z M335.7,13.6c0,1,0.2,1.8,0.6,2.5
		c0.4,0.7,0.9,1,1.6,1c0.8,0,1.4-0.3,1.8-0.9s0.6-1.5,0.6-2.6c0-2.2-0.8-3.3-2.5-3.3c-0.7,0-1.3,0.3-1.6,0.9
		C335.9,11.8,335.7,12.6,335.7,13.6z M343.4,13.5c0.3-0.5,0.6-0.8,1-1s0.8-0.4,1.3-0.4c0.8,0,1.5,0.3,1.9,0.8
		c0.5,0.5,0.7,1.2,0.7,2.1s-0.3,1.7-0.8,2.3c-0.5,0.6-1.2,0.9-2.1,0.9s-1.6-0.3-2.1-1s-0.8-1.6-0.8-2.7c0-0.8,0.1-1.4,0.2-2
		s0.3-1.1,0.6-1.4c0.3-0.4,0.6-0.7,1-0.9s0.9-0.4,1.6-0.6l2-0.5l0.2,1c-1.5,0.3-2.4,0.5-2.7,0.6c-0.3,0.1-0.7,0.2-0.9,0.4
		c-0.3,0.2-0.5,0.5-0.7,0.8C343.6,12.3,343.5,12.8,343.4,13.5z M345.5,17.2c0.5,0,0.9-0.2,1.2-0.6c0.3-0.4,0.4-0.9,0.4-1.5
		c0-0.7-0.1-1.2-0.4-1.6c-0.3-0.4-0.7-0.5-1.2-0.5s-1,0.2-1.3,0.6c-0.3,0.4-0.5,0.9-0.5,1.5s0.2,1.1,0.5,1.5S345,17.2,345.5,17.2z
		 M354.7,18h-1.4l-1.6-2.4l-1.6,2.4h-1.3l2.3-3.2l-2.1-3.1h1.3l1.4,2.2l1.5-2.2h1.3l-2.2,3L354.7,18z M359.3,14.6
		c0.8,0.3,1.2,0.8,1.2,1.6c0,0.5-0.2,0.9-0.6,1.3c-0.4,0.3-1,0.5-1.8,0.5h-2.6v-6.3c0.9,0,1.7-0.1,2.4-0.1c0.7,0,1.3,0.1,1.6,0.4
		c0.4,0.3,0.6,0.7,0.6,1.3c0,0.3-0.1,0.5-0.3,0.8C359.9,14.3,359.6,14.5,359.3,14.6z M356.6,14.3c0.1,0,0.5,0,1.3,0s1.2-0.3,1.2-0.9
		c0-0.3-0.1-0.5-0.3-0.6c-0.2-0.2-0.4-0.2-0.8-0.2c-0.6,0-1.1,0-1.5,0L356.6,14.3L356.6,14.3z M356.6,17.1c0.4,0,0.9,0,1.4,0
		c0.9,0,1.4-0.3,1.4-1c0-0.3-0.1-0.6-0.4-0.8c-0.2-0.2-0.6-0.3-1.1-0.3c-0.6,0-1,0-1.3,0V17.1z M365.3,17.3c-0.5,0.6-1.1,0.8-2,0.8
		c-0.5,0-0.9-0.2-1.3-0.5c-0.4-0.4-0.5-0.8-0.5-1.3c0-0.6,0.3-1.2,0.8-1.6c0.6-0.4,1.3-0.7,2.1-0.7c0.2,0,0.5,0,0.8,0.1
		c0-1-0.5-1.5-1.4-1.5c-0.7,0-1.2,0.2-1.6,0.6l-0.5-0.9c0.2-0.2,0.5-0.3,0.9-0.4c0.4-0.1,0.7-0.2,1.1-0.2c0.9,0,1.5,0.2,2,0.6
		c0.4,0.4,0.6,1.1,0.6,2v2.2c0,0.6,0.2,0.9,0.5,1.1v0.6c-0.5,0-0.8-0.1-1.1-0.2S365.3,17.5,365.3,17.3z M365.2,14.9
		c-0.4-0.1-0.6-0.1-0.7-0.1c-0.6,0-1,0.1-1.4,0.4c-0.4,0.3-0.5,0.6-0.5,1c0,0.7,0.4,1,1.2,1c0.6,0,1.1-0.3,1.5-0.8v-1.5H365.2z
		 M372.2,12.7h-1.8V18h-1.1v-5.3h-1.8v-0.9h4.7L372.2,12.7L372.2,12.7z"/>
</g>
<g>
	<defs>
		<rect id="SVGID_25_" x="319.5" y="2.2" width="127.1" height="22"/>
	</defs>
	<clipPath id="SVGID_26_">
		<use xlink:href="#SVGID_25_"  style="overflow:visible;"/>
	</clipPath>
	<g class="st15">
		<text transform="matrix(1 0 0 1 372.5776 18)" class="st3 st4"> </text>
	</g>
</g>
<g>
	<defs>
		<rect id="SVGID_27_" x="319.5" y="2.2" width="127.1" height="22"/>
	</defs>
	<clipPath id="SVGID_28_">
		<use xlink:href="#SVGID_27_"  style="overflow:visible;"/>
	</clipPath>
	<path class="st16" d="M377.5,13.5c0.3-0.5,0.6-0.8,1-1s0.8-0.4,1.3-0.4c0.8,0,1.5,0.3,1.9,0.8c0.5,0.5,0.7,1.2,0.7,2.1
		s-0.3,1.7-0.8,2.3c-0.5,0.6-1.2,0.9-2.1,0.9s-1.6-0.3-2.1-1s-0.8-1.6-0.8-2.7c0-0.8,0.1-1.4,0.2-2s0.3-1.1,0.6-1.4
		c0.3-0.4,0.6-0.7,1-0.9s0.9-0.4,1.6-0.6l2-0.5l0.2,1c-1.5,0.3-2.4,0.5-2.7,0.6c-0.3,0.1-0.7,0.2-0.9,0.4c-0.3,0.2-0.5,0.5-0.7,0.8
		C377.7,12.3,377.6,12.8,377.5,13.5z M379.6,17.2c0.5,0,0.9-0.2,1.2-0.6c0.3-0.4,0.4-0.9,0.4-1.5c0-0.7-0.1-1.2-0.4-1.6
		c-0.3-0.4-0.7-0.5-1.2-0.5s-1,0.2-1.3,0.6c-0.3,0.4-0.5,0.9-0.5,1.5s0.2,1.1,0.5,1.5S379.1,17.2,379.6,17.2z M389,14.3
		c0,0.2,0,0.4-0.1,0.7h-4.5c0,0.5,0.1,0.9,0.2,1.2c0.2,0.3,0.4,0.6,0.7,0.8c0.3,0.2,0.7,0.3,1.1,0.3c0.6,0,1.2-0.2,1.6-0.6l0.5,0.9
		c-0.3,0.2-0.6,0.4-1,0.5s-0.8,0.1-1.3,0.1c-0.9,0-1.6-0.3-2.1-0.9s-0.8-1.4-0.8-2.3c0-1,0.3-1.8,0.9-2.4s1.3-0.9,2.1-0.9
		c0.9,0,1.6,0.2,2.1,0.7S389,13.5,389,14.3L389,14.3z M386.2,12.5c-0.5,0-0.9,0.2-1.2,0.5c-0.3,0.3-0.5,0.7-0.6,1.1h3.5
		c0-0.5-0.2-0.9-0.5-1.2C387.1,12.7,386.7,12.5,386.2,12.5z M396,20.1h-1V18h-4.4v2.1h-1v-2.9h0.5c0.5-0.6,0.9-1.3,1.1-2.1
		c0.3-0.8,0.4-1.6,0.4-2.5v-0.8h3.7v5.4h0.7L396,20.1L396,20.1z M394.2,17.1v-4.5h-1.7c0,0.8-0.1,1.6-0.4,2.5c-0.2,0.8-0.6,1.5-1,2
		H394.2z M402.5,14.3c0,0.2,0,0.4-0.1,0.7h-4.5c0,0.5,0.1,0.9,0.2,1.2c0.2,0.3,0.4,0.6,0.7,0.8c0.3,0.2,0.7,0.3,1.1,0.3
		c0.6,0,1.2-0.2,1.6-0.6l0.5,0.9c-0.3,0.2-0.6,0.4-1,0.5s-0.8,0.1-1.3,0.1c-0.9,0-1.6-0.3-2.1-0.9s-0.8-1.4-0.8-2.3
		c0-1,0.3-1.8,0.9-2.4s1.3-0.9,2.1-0.9c0.9,0,1.6,0.2,2.1,0.7S402.5,13.5,402.5,14.3L402.5,14.3z M399.7,12.5
		c-0.5,0-0.9,0.2-1.2,0.5c-0.3,0.3-0.5,0.7-0.6,1.1h3.5c0-0.5-0.2-0.9-0.5-1.2C400.6,12.7,400.2,12.5,399.7,12.5z M404.8,17.7v2.8
		h-1.1v-8.7h1.1v0.5c0.4-0.4,0.9-0.6,1.5-0.6c0.9,0,1.6,0.3,2.1,0.8c0.5,0.6,0.7,1.4,0.7,2.4s-0.3,1.7-0.8,2.3
		c-0.5,0.6-1.2,0.9-2.2,0.9c-0.3,0-0.5,0-0.8-0.1C405.1,17.9,404.9,17.8,404.8,17.7z M404.8,13.1v3.7c0.1,0.1,0.2,0.2,0.5,0.3
		c0.2,0.1,0.4,0.1,0.6,0.1c1.4,0,2.1-0.8,2.1-2.4c0-0.8-0.2-1.4-0.5-1.8c-0.3-0.4-0.9-0.5-1.6-0.5c-0.2,0-0.3,0.1-0.6,0.2
		S404.9,13,404.8,13.1z"/>
</g>
<g>
	<defs>
		<rect id="SVGID_29_" x="319.5" y="2.2" width="127.1" height="22"/>
	</defs>
	<clipPath id="SVGID_30_">
		<use xlink:href="#SVGID_29_"  style="overflow:visible;"/>
	</clipPath>
	<g class="st17">
		<text transform="matrix(1 0 0 1 409.5474 18)" class="st7 st3 st4">, </text>
	</g>
</g>
<g>
	<defs>
		<rect id="SVGID_31_" x="319.5" y="2.2" width="127.1" height="22"/>
	</defs>
	<clipPath id="SVGID_32_">
		<use xlink:href="#SVGID_31_"  style="overflow:visible;"/>
	</clipPath>
	<path class="st18" d="M423.1,12.2l-0.5,0.8c-0.1-0.1-0.3-0.2-0.6-0.3s-0.6-0.1-0.8-0.1c-0.6,0-1.1,0.2-1.4,0.6
		c-0.4,0.4-0.5,1-0.5,1.7s0.2,1.3,0.5,1.7c0.4,0.4,0.9,0.6,1.5,0.6c0.5,0,1-0.2,1.5-0.6l0.4,0.9c-0.6,0.4-1.3,0.6-2.2,0.6
		c-0.9,0-1.6-0.3-2.1-0.9c-0.6-0.6-0.8-1.4-0.8-2.3c0-1,0.3-1.8,0.9-2.4s1.4-0.9,2.4-0.9c0.3,0,0.7,0.1,1.1,0.2
		S422.9,12.1,423.1,12.2z M430.3,18l-0.7-3.8l-1.9,3.9h-0.3l-1.9-3.8l-0.6,3.7h-1.1l1.2-6.4h0.3l2.3,4.7l2.3-4.7h0.3l1.2,6.4H430.3z
		"/>
</g>
<g>
	<defs>
		<rect id="SVGID_33_" x="2.2" y="24.8" width="61.6" height="22"/>
	</defs>
	<clipPath id="SVGID_34_">
		<use xlink:href="#SVGID_33_"  style="overflow:visible;"/>
	</clipPath>
	<g class="st19">
		<text transform="matrix(1 0 0 1 25 40)" class="st7 st3 st4">xxs</text>
	</g>
</g>
<g>
	<defs>
		<rect id="SVGID_35_" x="64.3" y="24.8" width="127.1" height="22"/>
	</defs>
	<clipPath id="SVGID_36_">
		<use xlink:href="#SVGID_35_"  style="overflow:visible;"/>
	</clipPath>
	<g class="st20">
		<text transform="matrix(1 0 0 1 113 40)" class="st7 st3 st4">78-82</text>
	</g>
</g>
<g>
	<defs>
		<rect id="SVGID_37_" x="191.9" y="24.8" width="127.1" height="22"/>
	</defs>
	<clipPath id="SVGID_38_">
		<use xlink:href="#SVGID_37_"  style="overflow:visible;"/>
	</clipPath>
	<g class="st21">
		<text transform="matrix(1 0 0 1 241 40)" class="st7 st3 st4">56-60</text>
	</g>
</g>
<g>
	<defs>
		<rect id="SVGID_39_" x="319.5" y="24.8" width="127.1" height="22"/>
	</defs>
	<clipPath id="SVGID_40_">
		<use xlink:href="#SVGID_39_"  style="overflow:visible;"/>
	</clipPath>
	<g class="st22">
		<text transform="matrix(1 0 0 1 368 40)" class="st7 st3 st4">84-88</text>
	</g>
</g>
<g>
	<defs>
		<rect id="SVGID_41_" x="2.2" y="47.2" width="61.6" height="22"/>
	</defs>
	<clipPath id="SVGID_42_">
		<use xlink:href="#SVGID_41_"  style="overflow:visible;"/>
	</clipPath>
	<g class="st23">
		<text transform="matrix(1 0 0 1 28 63)" class="st7 st3 st4">xs</text>
	</g>
</g>
<g>
	<defs>
		<rect id="SVGID_43_" x="64.3" y="47.2" width="127.1" height="22"/>
	</defs>
	<clipPath id="SVGID_44_">
		<use xlink:href="#SVGID_43_"  style="overflow:visible;"/>
	</clipPath>
	<g class="st24">
		<text transform="matrix(1 0 0 1 113 63)" class="st7 st3 st4">82-86</text>
	</g>
</g>
<g>
	<defs>
		<rect id="SVGID_45_" x="191.9" y="47.2" width="127.1" height="22"/>
	</defs>
	<clipPath id="SVGID_46_">
		<use xlink:href="#SVGID_45_"  style="overflow:visible;"/>
	</clipPath>
	<g class="st25">
		<text transform="matrix(1 0 0 1 241 63)" class="st7 st3 st4">60-64</text>
	</g>
</g>
<g>
	<defs>
		<rect id="SVGID_47_" x="319.5" y="47.2" width="127.1" height="22"/>
	</defs>
	<clipPath id="SVGID_48_">
		<use xlink:href="#SVGID_47_"  style="overflow:visible;"/>
	</clipPath>
	<g class="st26">
		<text transform="matrix(1 0 0 1 368 63)" class="st7 st3 st4">88-92</text>
	</g>
</g>
<g>
	<defs>
		<rect id="SVGID_49_" x="2.2" y="69.8" width="61.6" height="22"/>
	</defs>
	<clipPath id="SVGID_50_">
		<use xlink:href="#SVGID_49_"  style="overflow:visible;"/>
	</clipPath>
	<g class="st27">
		<text transform="matrix(1 0 0 1 31 85)" class="st7 st3 st4">s</text>
	</g>
</g>
<g>
	<defs>
		<rect id="SVGID_51_" x="64.3" y="69.8" width="127.1" height="22"/>
	</defs>
	<clipPath id="SVGID_52_">
		<use xlink:href="#SVGID_51_"  style="overflow:visible;"/>
	</clipPath>
	<g class="st28">
		<text transform="matrix(1 0 0 1 113 85)" class="st7 st3 st4">86-90</text>
	</g>
</g>
<g>
	<defs>
		<rect id="SVGID_53_" x="191.9" y="69.8" width="127.1" height="22"/>
	</defs>
	<clipPath id="SVGID_54_">
		<use xlink:href="#SVGID_53_"  style="overflow:visible;"/>
	</clipPath>
	<g class="st29">
		<text transform="matrix(1 0 0 1 241 85)" class="st7 st3 st4">64-68</text>
	</g>
</g>
<g>
	<defs>
		<rect id="SVGID_55_" x="319.5" y="69.8" width="127.1" height="22"/>
	</defs>
	<clipPath id="SVGID_56_">
		<use xlink:href="#SVGID_55_"  style="overflow:visible;"/>
	</clipPath>
	<g class="st30">
		<text transform="matrix(1 0 0 1 368 85)" class="st7 st3 st4">92-96</text>
	</g>
</g>
<g>
	<defs>
		<rect id="SVGID_57_" x="2.2" y="92.2" width="61.6" height="22"/>
	</defs>
	<clipPath id="SVGID_58_">
		<use xlink:href="#SVGID_57_"  style="overflow:visible;"/>
	</clipPath>
	<g class="st31">
		<text transform="matrix(1 0 0 1 28 108)" class="st7 st3 st4">m</text>
	</g>
</g>
<g>
	<defs>
		<rect id="SVGID_59_" x="64.3" y="92.2" width="127.1" height="22"/>
	</defs>
	<clipPath id="SVGID_60_">
		<use xlink:href="#SVGID_59_"  style="overflow:visible;"/>
	</clipPath>
	<g class="st32">
		<text transform="matrix(1 0 0 1 113 108)" class="st7 st3 st4">90-94</text>
	</g>
</g>
<g>
	<defs>
		<rect id="SVGID_61_" x="191.9" y="92.2" width="127.1" height="22"/>
	</defs>
	<clipPath id="SVGID_62_">
		<use xlink:href="#SVGID_61_"  style="overflow:visible;"/>
	</clipPath>
	<g class="st33">
		<text transform="matrix(1 0 0 1 241 108)" class="st7 st3 st4">68-72</text>
	</g>
</g>
<g>
	<defs>
		<rect id="SVGID_63_" x="319.5" y="92.2" width="127.1" height="22"/>
	</defs>
	<clipPath id="SVGID_64_">
		<use xlink:href="#SVGID_63_"  style="overflow:visible;"/>
	</clipPath>
	<g class="st34">
		<text transform="matrix(1 0 0 1 365 108)" class="st7 st3 st4">96-100</text>
	</g>
</g>
<g>
	<defs>
		<rect id="SVGID_65_" x="2.2" y="114.8" width="61.6" height="22"/>
	</defs>
	<clipPath id="SVGID_66_">
		<use xlink:href="#SVGID_65_"  style="overflow:visible;"/>
	</clipPath>
	<g class="st35">
		<text transform="matrix(1 0 0 1 11 130)" class="st7 st3 st4">one size</text>
	</g>
</g>
<g>
	<defs>
		<rect id="SVGID_67_" x="64.3" y="114.8" width="127.1" height="22"/>
	</defs>
	<clipPath id="SVGID_68_">
		<use xlink:href="#SVGID_67_"  style="overflow:visible;"/>
	</clipPath>
	<g class="st36">
		<text transform="matrix(1 0 0 1 113 130)" class="st7 st3 st4">80-95</text>
	</g>
</g>
<g>
	<defs>
		<rect id="SVGID_69_" x="191.9" y="114.8" width="127.1" height="22"/>
	</defs>
	<clipPath id="SVGID_70_">
		<use xlink:href="#SVGID_69_"  style="overflow:visible;"/>
	</clipPath>
	<g class="st37">
		<text transform="matrix(1 0 0 1 241 130)" class="st7 st3 st4">57-73</text>
	</g>
</g>
<g>
	<defs>
		<rect id="SVGID_71_" x="319.5" y="114.8" width="127.1" height="22"/>
	</defs>
	<clipPath id="SVGID_72_">
		<use xlink:href="#SVGID_71_"  style="overflow:visible;"/>
	</clipPath>
	<g class="st38">
		<text transform="matrix(1 0 0 1 365 130)" class="st7 st3 st4">87-100</text>
	</g>
</g>
<g>
	<defs>
		<rect id="SVGID_73_" y="0" width="449" height="139"/>
	</defs>
	<clipPath id="SVGID_74_">
		<use xlink:href="#SVGID_73_"  style="overflow:visible;"/>
	</clipPath>
	<line class="st39" x1="64.1" y1="1.5" x2="64.1" y2="137.5"/>
</g>
<g>
	<defs>
		<rect id="SVGID_75_" y="0" width="449" height="139"/>
	</defs>
	<clipPath id="SVGID_76_">
		<use xlink:href="#SVGID_75_"  style="overflow:visible;"/>
	</clipPath>
	<line class="st40" x1="191.7" y1="1.5" x2="191.7" y2="137.5"/>
</g>
<g>
	<defs>
		<rect id="SVGID_77_" y="0" width="449" height="139"/>
	</defs>
	<clipPath id="SVGID_78_">
		<use xlink:href="#SVGID_77_"  style="overflow:visible;"/>
	</clipPath>
	<line class="st41" x1="319.2" y1="1.5" x2="319.2" y2="137.5"/>
</g>
<g>
	<defs>
		<rect id="SVGID_79_" y="0" width="449" height="139"/>
	</defs>
	<clipPath id="SVGID_80_">
		<use xlink:href="#SVGID_79_"  style="overflow:visible;"/>
	</clipPath>
	<line class="st42" x1="1.5" y1="24.5" x2="447.4" y2="24.5"/>
</g>
<g>
	<defs>
		<rect id="SVGID_81_" y="0" width="449" height="139"/>
	</defs>
	<clipPath id="SVGID_82_">
		<use xlink:href="#SVGID_81_"  style="overflow:visible;"/>
	</clipPath>
	<line class="st43" x1="1.5" y1="47" x2="447.4" y2="47"/>
</g>
<g>
	<defs>
		<rect id="SVGID_83_" y="0" width="449" height="139"/>
	</defs>
	<clipPath id="SVGID_84_">
		<use xlink:href="#SVGID_83_"  style="overflow:visible;"/>
	</clipPath>
	<line class="st44" x1="1.5" y1="69.5" x2="447.4" y2="69.5"/>
</g>
<g>
	<defs>
		<rect id="SVGID_85_" y="0" width="449" height="139"/>
	</defs>
	<clipPath id="SVGID_86_">
		<use xlink:href="#SVGID_85_"  style="overflow:visible;"/>
	</clipPath>
	<line class="st45" x1="1.5" y1="92" x2="447.4" y2="92"/>
</g>
<g>
	<defs>
		<rect id="SVGID_87_" y="0" width="449" height="139"/>
	</defs>
	<clipPath id="SVGID_88_">
		<use xlink:href="#SVGID_87_"  style="overflow:visible;"/>
	</clipPath>
	<line class="st46" x1="1.5" y1="114.5" x2="447.4" y2="114.5"/>
</g>
<g>
	<defs>
		<rect id="SVGID_89_" y="0" width="449" height="139"/>
	</defs>
	<clipPath id="SVGID_90_">
		<use xlink:href="#SVGID_89_"  style="overflow:visible;"/>
	</clipPath>
	<line class="st47" x1="2" y1="1.5" x2="2" y2="137.5"/>
</g>
<g>
	<defs>
		<rect id="SVGID_91_" y="0" width="449" height="139"/>
	</defs>
	<clipPath id="SVGID_92_">
		<use xlink:href="#SVGID_91_"  style="overflow:visible;"/>
	</clipPath>
	<line class="st48" x1="446.9" y1="1.5" x2="446.9" y2="137.5"/>
</g>
<g>
	<defs>
		<rect id="SVGID_93_" y="0" width="449" height="139"/>
	</defs>
	<clipPath id="SVGID_94_">
		<use xlink:href="#SVGID_93_"  style="overflow:visible;"/>
	</clipPath>
	<line class="st49" x1="1.5" y1="2" x2="447.4" y2="2"/>
</g>
<g>
	<defs>
		<rect id="SVGID_95_" y="0" width="449" height="139"/>
	</defs>
	<clipPath id="SVGID_96_">
		<use xlink:href="#SVGID_95_"  style="overflow:visible;"/>
	</clipPath>
	<line class="st50" x1="1.5" y1="137" x2="447.4" y2="137"/>
</g>
</svg>
